<?xml version="1.0" encoding="utf-8"?>
<!-- Generator: Adobe Illustrator 22.0.1, SVG Export Plug-In . SVG Version: 6.00 Build 0)  -->
<svg version="1.1" id="Layer_1" xmlns="http://www.w3.org/2000/svg" xmlns:xlink="http://www.w3.org/1999/xlink" x="0px" y="0px"
	 viewBox="0 0 150 30" style="enable-background:new 0 0 150 30;" xml:space="preserve">
<path d="M0.1,17.1C0,16.3,0,15.2,0,14.7L1.1,2h4.2L4.2,14.8c-0.2,2.8,0.8,4.8,3.6,4.8c2.8,0,4.3-2,4.6-4.5L13.5,2h4.2l-1.1,12.9
	c-0.5,5-3.8,8.7-9.1,8.7C3.3,23.7,0.6,21,0.1,17.1 M19.4,12.8c0.5-6.1,4.7-11.2,11.8-11.2c1.9,0,3.7,0.4,5.5,1.6l-0.5,5.1
	c-1.6-2.2-3.6-2.5-5.4-2.5c-4.4,0-6.9,3.1-7.2,7c-0.3,3.8,1.6,6.9,5.9,6.9c1.9,0,3.9-0.5,5.9-2.6L35,22.1c-1.8,1-3.8,1.6-5.8,1.6
	C22.1,23.7,18.9,18.5,19.4,12.8 M40,2h4.2l-1.5,17.3h6c0.4,0,1.8,0,2.2,0l-0.4,4H38.1C38.1,23.2,40,2,40,2z M62.7,1h-0.3L51,23.2
	h4.4l1.6-3.4h8l1,3.4l4.4,0L62.7,1z M61.6,9.9c0.1-0.3,0.3-0.7,0.3-0.9H62c0,0.3,0.1,0.6,0.2,0.9c0.2,1,1.8,6.3,1.8,6.3h-5.2
	C58.8,16.2,61.6,10,61.6,9.9 M77.7,23.3v-0.5c1.2,0,1.8-0.1,1.8-1.3V9.4c0-1.1-0.8-1.3-1.8-1.3V7.6h6.2v0.5c-1.5,0-2.2,0.4-2.2,1.5
	V21c0,1.8,0.6,1.8,2.8,1.8c0.9,0,1.9,0,2.8-0.2c1.2-0.2,1.8-0.9,2.5-1.9c0.6-0.8,1.1-1.7,1.6-2.6h0.5l-1.3,5.1L77.7,23.3
	C77.7,23.3,77.7,23.3,77.7,23.3z M97.4,8.6c0,0.6-0.5,1.2-1.1,1.2c-0.6,0-1.2-0.6-1.2-1.2s0.6-1.2,1.2-1.2C96.9,7.4,97.4,8,97.4,8.6
	 M94.2,23.3v-0.4c1-0.1,1.3-0.1,1.3-1.2v-5.4c0-0.5,0-1.1-0.4-1.4c-0.3-0.2-0.5-0.2-0.8-0.2v-0.2c1-0.4,2-0.8,3-1.2v8.5
	c0,1.2,0.3,1.2,1.2,1.2v0.4C98.5,23.3,94.2,23.3,94.2,23.3z M106.2,14.1c-1.6,0-2.2,0.8-2.6,1.3v5c0,1.5,0.8,2.7,2.4,2.7
	c3,0,3.4-3.8,3.4-4.7C109.5,16.4,108.7,14,106.2,14.1 M101.9,23.4V9.8c0-0.3,0-0.6-0.4-0.8c-0.3-0.1-0.5-0.2-0.8-0.2V8.6l3-1.2v7.1
	c1-0.9,2.3-1.3,3.6-1.3c2.6,0,4.2,2.4,4.2,4.9c0,1.1-0.4,5.5-5.2,5.5c-1.2,0-2.4-0.3-3.5-0.7l-0.5,0.6
	C102.2,23.4,101.9,23.4,101.9,23.4z M113.6,23.3v-0.4c1-0.1,1.3-0.1,1.3-1.2v-5.7c0-0.9-0.2-0.9-1.1-1.3v-0.2
	c0.9-0.3,1.9-0.8,2.8-1.2v1.6c0.6-0.7,1.3-1.7,2.3-1.7c0.7,0,1.2,0.3,1.2,1c0,0.5-0.4,0.9-0.9,0.9c-0.4,0-0.8-0.4-1.3-0.4
	c-0.4,0-1.2,0.6-1.2,1v6c0,1.2,0.3,1.2,1.4,1.2v0.4L113.6,23.3L113.6,23.3z M126.8,18c-1,0.5-3.7,1.2-3.7,2.6c0,0.9,0.7,1.7,1.6,1.7
	c0.9,0,1.4-0.4,2-0.9C126.8,21.5,126.8,18,126.8,18z M126.8,15c0-0.9-0.6-1.2-1.4-1.2c-0.8,0-2,0.5-2,1.1l0,0.5
	c0,0.9-0.2,1.5-1.2,1.5c-0.4,0-0.7-0.4-0.7-0.8c0-0.5,0.3-1,0.8-1.4c1.1-0.9,2.5-1.5,4-1.6c1.4,0,2.1,0.8,2.1,2.2v6.1
	c0,0.4,0,1.1,0.5,1.1c0.4,0,0.6-0.5,0.6-0.8h0.4c-0.1,1.1-0.6,1.7-1.7,1.7c-0.8,0-1.5-0.8-1.6-1.6c-1.1,0.8-1.8,1.6-3.2,1.6
	c-1,0-2-0.8-2-1.9c0-2.5,3.4-3.3,5.2-4.1L126.8,15L126.8,15L126.8,15z M131.9,23.3v-0.4c1-0.1,1.3-0.1,1.3-1.2v-5.7
	c0-0.9-0.2-0.9-1.1-1.3v-0.2c1-0.3,1.9-0.8,2.8-1.2v1.6c0.6-0.7,1.3-1.7,2.3-1.7c0.7,0,1.2,0.3,1.2,1c0,0.5-0.4,0.9-0.9,0.9
	c-0.4,0-0.8-0.4-1.3-0.4c-0.4,0-1.2,0.6-1.2,1v6c0,1.2,0.3,1.2,1.4,1.2v0.4L131.9,23.3L131.9,23.3z M139.1,13.4h4.9v0.4
	c-0.5,0-1.7,0-1.7,0.6c0,0.1,0.1,0.3,0.3,0.7l3.1,5.8l1.8-5.2c0.2-0.5,0.2-0.9,0.2-1.1c0-0.8-1-0.7-1.6-0.8v-0.4h3.8v0.4
	c-1.1,0-1.4,0.4-1.7,1.4l-3.6,10.5c-0.4,1.1-0.9,2.4-2.2,2.4c-0.5,0-0.9-0.4-0.9-0.9c0-0.5,0.3-0.9,0.9-0.9c0.2,0,0.5,0.1,0.7,0.1
	c0.6,0.1,0.9-0.6,1.1-1.1l0.7-2.2l-4.4-8c-0.6-1-0.4-1-1.5-1.2L139.1,13.4L139.1,13.4z"/>
</svg>
